<svg xmlns="http://www.w3.org/2000/svg" width="1600" height="720" viewBox="0 0 1600 720" role="img" aria-labelledby="title desc">
  <title id="title">Run coding agents on your machines and steer them from any browser</title>
  <desc id="desc">A browser window shows Codex, Claude Code, and Grok Build running concurrently on a home workstation beside a second tlbx host tab.</desc>
  <defs>
    <linearGradient id="bg" x1="0" y1="0" x2="1" y2="1"><stop stop-color="#040609"/><stop offset="1" stop-color="#0b1321"/></linearGradient>
    <linearGradient id="bar" x1="0" y1="0" x2="0" y2="1"><stop stop-color="#141d2d"/><stop offset="1" stop-color="#0d1420"/></linearGradient>
    <pattern id="grid" width="48" height="48" patternUnits="userSpaceOnUse"><path d="M48 0H0V48" fill="none" stroke="#80b6f2" stroke-opacity="0.045"/></pattern>
    <filter id="glow" x="-200%" y="-200%" width="500%" height="500%"><feGaussianBlur stdDeviation="8" result="b"/><feMerge><feMergeNode in="b"/><feMergeNode in="SourceGraphic"/></feMerge></filter>
    <symbol id="tlbxSmallMark" viewBox="0 0 400 400">
      <g fill="none" stroke="#f7f8fb" stroke-width="15" stroke-linecap="round" stroke-linejoin="round">
        <path d="M12 98 265 7 385 69 385 299 132 390 12 328Z"/>
        <path d="M12 98 132 160 385 69M12 140 132 202 385 111M132 160V390M132 202 266.09 277.97 385 111"/>
      </g>
      <path d="M240.79 141.87Q266.09 108.77 291.39 123.67Q266.09 156.77 240.79 141.87Z" fill="#f7f8fb"/>
      <circle cx="266.09" cy="132.77" r="12" fill="#05070b"/>
      <circle cx="266.09" cy="132.77" r="6.5" fill="#69b7ff"/>
      <path d="M94.6 241.077C84.6 224.91 65.6 213.093 51.6 218.86C38.6 223.143 41.6 238.693 53.6 248.893C66.6 263.61 85.6 269.427 94.6 261.077V251.077L76.6 241.777" fill="none" stroke="#f7f8fb" stroke-width="15" stroke-linecap="round" stroke-linejoin="round"/>
    </symbol>
  </defs>
  <rect width="1600" height="720" rx="28" fill="url(#bg)"/>
  <rect width="1600" height="720" rx="28" fill="url(#grid)"/>
  <rect x="1" y="1" width="1598" height="718" rx="27" fill="none" stroke="#80b6f2" stroke-opacity="0.2" stroke-width="2"/>

  <g font-family="ui-monospace, SFMono-Regular, Menlo, Consolas, monospace">
  <text x="800" y="62" fill="#80b6f2" font-size="17" text-anchor="middle" font-weight="700" letter-spacing="3">CODEX · CLAUDE CODE · GROK BUILD · OPENCODE</text>
  <text x="800" y="104" fill="#f7faff" font-size="32" text-anchor="middle" font-weight="700">Run your coding agents on your machines. Steer them from anywhere.</text>

    <g transform="translate(70 142)">
      <rect width="1460" height="474" rx="20" fill="#080c13" stroke="#3a4963" stroke-width="2"/>
      <rect width="1460" height="82" rx="20" fill="url(#bar)"/>
      <rect y="62" width="1460" height="20" fill="#0d1420"/>

      <circle cx="25" cy="24" r="6" fill="#ff6b6b"/>
      <circle cx="47" cy="24" r="6" fill="#ffd479"/>
      <circle cx="69" cy="24" r="6" fill="#77f2a1"/>

      <g transform="translate(104 8)" font-size="13">
        <rect width="190" height="46" rx="10" fill="#101827"/>
        <text x="24" y="29" fill="#8f9caf">Issues</text>
        <rect x="200" width="190" height="46" rx="10" fill="#101827"/>
        <text x="224" y="29" fill="#8f9caf">Docs</text>
        <rect x="400" width="190" height="46" rx="10" fill="#101827"/>
        <circle cx="420" cy="24" r="4" fill="#c997ff"/>
        <text x="434" y="29" fill="#aebad0">tlbx · office</text>
        <rect x="600" width="250" height="54" rx="10" fill="#17243b" stroke="#80b6f2" stroke-opacity="0.55"/>
        <use href="#tlbxSmallMark" x="611" y="7" width="48" height="48"/>
        <text x="676" y="31" fill="#f7faff" font-weight="700">tlbx · home</text>
        <circle cx="824" cy="27" r="5" fill="#77f2a1" filter="url(#glow)"/>
        <rect x="860" width="220" height="46" rx="10" fill="#101827"/>
        <text x="884" y="29" fill="#8f9caf">Local app</text>
        <rect x="1090" width="190" height="46" rx="10" fill="#101827"/>
        <text x="1114" y="29" fill="#8f9caf">Calendar</text>
      </g>

      <rect x="18" y="98" width="282" height="354" rx="12" fill="#0b111c" stroke="#26344a"/>
      <text x="38" y="130" fill="#80b6f2" font-size="11" font-weight="700" letter-spacing="1.5">3 AGENTS · HOME WORKSTATION</text>
      <g transform="translate(34 150)">
        <rect width="250" height="68" rx="9" fill="#17243b" stroke="#80b6f2" stroke-opacity="0.55"/>
        <circle cx="19" cy="23" r="6" fill="#77f2a1"/>
        <text x="36" y="28" fill="#f7faff" font-size="14" font-weight="700">Codex · feature</text>
        <text x="36" y="51" fill="#9aa8bd" font-size="10">running · Q:\repos\app</text>
      </g>
      <g transform="translate(34 230)">
        <rect width="250" height="68" rx="9" fill="#101827" stroke="#26344a"/>
        <circle cx="19" cy="23" r="6" fill="#ffd479"/>
        <text x="36" y="28" fill="#f7faff" font-size="14" font-weight="700">Claude Code</text>
        <text x="36" y="51" fill="#9aa8bd" font-size="10">api-review · needs input</text>
      </g>
      <g transform="translate(34 310)">
        <rect width="250" height="68" rx="9" fill="#101827" stroke="#26344a"/>
        <circle cx="19" cy="23" r="6" fill="#80b6f2"/>
        <text x="36" y="28" fill="#f7faff" font-size="14" font-weight="700">Grok Build</text>
        <text x="36" y="51" fill="#9aa8bd" font-size="10">perf-audit · running</text>
      </g>

      <rect x="318" y="98" width="710" height="354" rx="12" fill="#05080d" stroke="#26344a"/>
      <text x="342" y="130" fill="#80b6f2" font-size="11" font-weight="700">ACTIVE · CODEX · HOME WORKSTATION</text>
      <text x="342" y="174" fill="#77f2a1" font-size="15">✓ implementation complete</text>
      <text x="342" y="212" fill="#f7faff" font-size="15">agent&gt; opening the changed page</text>
      <text x="342" y="250" fill="#80b6f2" font-size="15">browser&gt; console clean · 200 OK</text>
      <text x="342" y="288" fill="#ffd479" font-size="15">git&gt; 3 files changed · +42 −11</text>
      <text x="342" y="326" fill="#f7faff" font-size="15">PS Q:\repos\app&gt; _</text>
      <rect x="342" y="366" width="660" height="62" rx="9" fill="#0f1726" stroke="#27344b"/>
      <text x="362" y="402" fill="#8f9caf" font-size="13">Send the next instruction without leaving the browser…</text>
      <rect x="938" y="380" width="44" height="34" rx="8" fill="#80b6f2"/>
      <path d="M954 388l16 9-16 9z" fill="#07101d"/>

      <rect x="1046" y="98" width="396" height="354" rx="12" fill="#0e1828" stroke="#2b3a53"/>
      <rect x="1062" y="114" width="364" height="34" rx="7" fill="#17243b"/>
      <circle cx="1078" cy="131" r="4" fill="#77f2a1"/>
      <text x="1092" y="136" fill="#aebad0" font-size="10">http://localhost:5173</text>
      <rect x="1062" y="164" width="364" height="242" rx="8" fill="#111e32"/>
      <use href="#tlbxSmallMark" x="1070" y="180" width="92" height="92"/>
      <text x="1090" y="292" fill="#f7faff" font-size="22" font-weight="700">The app is right here.</text>
      <text x="1090" y="324" fill="#9aa8bd" font-size="12">Preview · inspect · fix · repeat</text>
      <rect x="1090" y="350" width="154" height="34" rx="7" fill="#80b6f2"/>
      <text x="1167" y="372" fill="#07101d" font-size="11" text-anchor="middle" font-weight="700">OPEN DEV BROWSER</text>
    </g>

    <text x="800" y="665" fill="#f7faff" font-size="24" text-anchor="middle" font-weight="700">Your machines are browser tabs. Your agents keep working when you leave.</text>
    <text x="800" y="697" fill="#8f9caf" font-size="14" text-anchor="middle">OpenCode · Antigravity CLI · Copilot CLI · any terminal-native agent</text>
  </g>
</svg>
