<svg xmlns="http://www.w3.org/2000/svg" width="1600" height="520" viewBox="0 0 1600 520" role="img" aria-labelledby="title desc">
  <title id="title">MidTerm — the open control room for AI agents</title>
  <desc id="desc">MidTerm's twin-rail logo beside the product name and its promise: run any agent, see everything, steer from anywhere.</desc>
  <defs>
    <linearGradient id="bg" x1="0" y1="0" x2="1" y2="1">
      <stop offset="0" stop-color="#030508"/>
      <stop offset="0.55" stop-color="#080d17"/>
      <stop offset="1" stop-color="#0c1423"/>
    </linearGradient>
    <radialGradient id="signal" cx="50%" cy="50%" r="50%">
      <stop offset="0" stop-color="#bfe0ff" stop-opacity="0.95"/>
      <stop offset="0.28" stop-color="#80b6f2" stop-opacity="0.65"/>
      <stop offset="1" stop-color="#80b6f2" stop-opacity="0"/>
    </radialGradient>
    <filter id="railGlow" x="-80%" y="-40%" width="260%" height="180%">
      <feGaussianBlur stdDeviation="18" result="blur"/>
      <feColorMatrix in="blur" values="0 0 0 0 0.18 0 0 0 0 0.38 0 0 0 0 0.72 0 0 0 0.7 0"/>
    </filter>
    <filter id="dotGlow" x="-300%" y="-300%" width="700%" height="700%">
      <feGaussianBlur stdDeviation="12" result="blur"/>
      <feMerge><feMergeNode in="blur"/><feMergeNode in="SourceGraphic"/></feMerge>
    </filter>
    <pattern id="grid" width="48" height="48" patternUnits="userSpaceOnUse">
      <path d="M48 0H0V48" fill="none" stroke="#80b6f2" stroke-opacity="0.055"/>
    </pattern>
    <clipPath id="frame"><rect width="1600" height="520" rx="30"/></clipPath>
  </defs>

  <g clip-path="url(#frame)">
    <rect width="1600" height="520" fill="url(#bg)"/>
    <rect width="1600" height="520" fill="url(#grid)"/>
    <circle cx="356" cy="260" r="270" fill="url(#signal)" opacity="0.32"/>
    <circle cx="1420" cy="-10" r="420" fill="url(#signal)" opacity="0.12"/>
    <path d="M0 440H1600" stroke="#80b6f2" stroke-opacity="0.16"/>
    <path d="M1130 440h470" stroke="#80b6f2" stroke-opacity="0.55"/>

    <g aria-label="MidTerm logo">
      <path d="M247 99h58L170 421h-54zM367 99h58l136 322h-55z" fill="#446aa4" opacity="0.7" filter="url(#railGlow)"/>
      <path d="M247 99h58L170 421h-54zM367 99h58l136 322h-55z" fill="#fdfefc"/>
      <circle cx="336" cy="282" r="17" fill="#80b6f2" filter="url(#dotGlow)"/>
    </g>

    <g font-family="ui-monospace, SFMono-Regular, Menlo, Consolas, monospace">
      <text x="650" y="242" fill="#f7faff" font-size="132" font-weight="700" letter-spacing="-7">MidTerm</text>
      <text x="658" y="307" fill="#80b6f2" font-size="26" font-weight="700" letter-spacing="4">THE OPEN CONTROL ROOM FOR AI AGENTS</text>
      <text x="658" y="372" fill="#aab6c9" font-size="25">Run any agent.</text>
      <text x="884" y="372" fill="#f7faff" font-size="25">See everything.</text>
      <text x="1115" y="372" fill="#80b6f2" font-size="25">Steer from anywhere.</text>
    </g>

    <g transform="translate(658 421)" font-family="ui-monospace, SFMono-Regular, Menlo, Consolas, monospace" font-size="16" font-weight="700" letter-spacing="1.5">
      <circle cx="7" cy="-5" r="6" fill="#77f2a1"/>
      <text x="25" y="0" fill="#9ca9be">LOCAL-FIRST</text>
      <circle cx="185" cy="-5" r="6" fill="#80b6f2"/>
      <text x="203" y="0" fill="#9ca9be">PROVIDER-OPEN</text>
      <circle cx="395" cy="-5" r="6" fill="#c997ff"/>
      <text x="413" y="0" fill="#9ca9be">OPEN SOURCE</text>
    </g>
  </g>
  <rect x="0.75" y="0.75" width="1598.5" height="518.5" rx="29.25" fill="none" stroke="#80b6f2" stroke-opacity="0.18" stroke-width="1.5"/>
</svg>
