<svg xmlns="http://www.w3.org/2000/svg" width="100%" height="100%" viewBox="0 0 16 16" role="img" aria-labelledby="title desc" style="--tlbx-ink:#f7f8fb;--tlbx-background:#05070b;--tlbx-accent:#69b7ff">
  <title id="title">tlbx favicon</title>
  <desc id="desc">A compact isometric toolbox with a blue live-signal glow.</desc>
  <defs>
    <linearGradient id="tlbx-lid" x1="0" y1="0" x2="1" y2="1">
      <stop stop-color="#2b5687"/>
      <stop offset="1" stop-color="#102642"/>
    </linearGradient>
    <radialGradient id="tlbx-ambient-glow" cx="62%" cy="42%" r="58%">
      <stop offset="0" stop-color="var(--tlbx-accent)" stop-opacity="0.42"/>
      <stop offset="0.52" stop-color="#287fc9" stop-opacity="0.18"/>
      <stop offset="1" stop-color="var(--tlbx-accent)" stop-opacity="0"/>
    </radialGradient>
    <radialGradient id="tlbx-pupil-glow">
      <stop offset="0" stop-color="#dff3ff" stop-opacity="0.95"/>
      <stop offset="0.24" stop-color="var(--tlbx-accent)" stop-opacity="0.9"/>
      <stop offset="0.6" stop-color="#348ed8" stop-opacity="0.38"/>
      <stop offset="1" stop-color="var(--tlbx-accent)" stop-opacity="0"/>
    </radialGradient>
  </defs>
  <rect width="16" height="16" rx="3" fill="var(--tlbx-background)"/>
  <g>
    <ellipse cx="9.7" cy="5.4" rx="5.5" ry="4.2" fill="url(#tlbx-ambient-glow)"/>
    <path d="M1.4 5.2 7.7 7.8 7.7 11.9 1.4 9.3Z" fill="#101d2c"/>
    <path d="M7.7 7.8 14.7 4.9 14.7 9 7.7 11.9Z" fill="#172d45"/>
    <path d="M1.4 5.2 8.4 2.3 14.7 4.9 7.7 7.8Z" fill="url(#tlbx-lid)"/>
    <g fill="none" stroke="var(--tlbx-ink)" stroke-width="1.12" stroke-linecap="round" stroke-linejoin="round">
      <path d="M1.4 5.2 8.4 2.3 14.7 4.9 14.7 9 7.7 11.9 1.4 9.3Z"/>
      <path d="M1.4 5.2 7.7 7.8 14.7 4.9M7.7 7.8V11.9"/>
      <path d="M1.4 6.2 7.7 8.8 14.7 5.9" stroke-opacity="0.64"/>
    </g>
    <circle cx="10.5" cy="4.85" r="2.65" fill="url(#tlbx-pupil-glow)"/>
    <circle cx="10.5" cy="4.85" r="0.88" fill="var(--tlbx-accent)"/>
    <circle cx="10.25" cy="4.58" r="0.3" fill="#eef9ff"/>
  </g>
</svg>
